# xmcd
#
# Track frame offsets: 
#        150
#        15930
#        30527
#        45757
#        59894
#        75094
#        94022
#        113038
#        128680
#        153473
#        170761
#        184203
#        205918
#        224479
#        240624
#
# Disc length: 3479 seconds
#
# Revision: 2
# Processed by: cddbd v1.5.2PL0 Copyright (c) Steve Scherf et al.
# Submitted via: ExactAudioCopy v0.99pb5
#
DISCID=bd0d950f
DTITLE=BANDARI 班得瑞 - EMERALD VALLEY 翡翠谷 
DYEAR=2007
DGENRE=New Age
TTITLE0=天堂之路 The Way to Heaven
TTITLE1=天上之父 Athair Ar Neamh (选自 ENYA 《树的回忆》 )
TTITLE2=精灵之吻 Kiss of A Fairy
TTITLE3=永恒之约 Amarantine (选自ENYA同名专辑)
TTITLE4=夜之华尔兹 Night Waitz
TTITLE5=白沙湾 White Sand Shore
TTITLE6=黄金竖琴 The Golden Harp
TTITLE7=爱的颜色 The Colours of Love
TTITLE8=真实的一天 The Day of Truth
TTITLE9=清澈海洋 Sea of Clarity
TTITLE10=翻越山岭的晴朗天空 Clear Sky Over the Monuntain
TTITLE11=芭蕾女伶 Ballerina
TTITLE12=平和花园 Garden of Peace
TTITLE13=爱尔兰玫瑰 Rose of Tralee
TTITLE14=圣火 The Holy Flame
EXTD=
EXTT0=
EXTT1=
EXTT2=
EXTT3=
EXTT4=
EXTT5=
EXTT6=
EXTT7=
EXTT8=
EXTT9=
EXTT10=
EXTT11=
EXTT12=
EXTT13=
EXTT14=
PLAYORDER=
